<?xml version="1.0" encoding="utf-8"?>
<!-- Generator: Adobe Illustrator 26.1.0, SVG Export Plug-In . SVG Version: 6.00 Build 0)  -->
<svg version="1.1" id="b4f86dad-6d4b-4f47-8fdf-9ec43e33a6e7"
	 xmlns="http://www.w3.org/2000/svg" xmlns:xlink="http://www.w3.org/1999/xlink" x="0px" y="0px" viewBox="0 0 1283.6 641.7"
	 style="enable-background:new 0 0 1283.6 641.7;" xml:space="preserve">
<style type="text/css">
	.st0{fill:#4695FE;}
	.st1{fill:#6633C6;}
</style>
<path class="st0" d="M299.8,638.9V495.8h90.9v21.9h-66.8v38.2H385v21.9h-61.1V617h67.8v21.9H299.8z"/>
<path class="st0" d="M462.6,641.7c-10.8,0-20.3-1.9-28.7-5.8c-8.1-3.6-14.9-9.5-19.7-16.9c-4.8-7.3-7.2-16.3-7.2-27v-5.3h23.7v5.3
	c0,9.5,2.9,16.7,8.7,21.5c5.8,4.8,13.5,7.2,23.2,7.2c9.8,0,17.2-2,22.2-6.1c4.8-3.7,7.6-9.5,7.5-15.5c0-4.4-1.2-7.9-3.6-10.5
	c-2.8-3-6.3-5.2-10.2-6.5c-5.2-1.9-10.5-3.4-15.8-4.6l-6.5-1.6c-8.4-1.8-16.5-4.6-24.3-8.2c-6.3-2.9-11.8-7.3-15.8-12.9
	c-3.7-5.3-5.6-12.3-5.6-20.8c0-8.5,2.1-15.7,6.2-21.9c4.4-6.3,10.4-11.1,17.5-14c7.5-3.3,16.2-4.9,26.2-4.9c9.3-0.2,18.4,1.6,27,5.1
	c7.6,3.1,14.1,8.5,18.6,15.3c4.5,6.8,6.8,15.3,6.8,25.3v7h-23.7v-7c0-5.9-1.2-10.6-3.5-14.2c-2.4-3.7-5.8-6.5-9.9-8
	c-4.9-1.8-10-2.7-15.2-2.6c-8.5,0-14.9,1.7-19.3,5.1c-4.4,3.4-6.6,8.1-6.6,14.1c-0.1,3.5,0.9,7,3,9.9c2.3,2.9,5.4,5.2,8.9,6.6
	c4.7,2,9.7,3.5,14.7,4.5l6.5,1.6c8.7,1.8,17.1,4.5,25.2,8c6.8,2.9,12.7,7.4,17.2,13.2c4.2,5.5,6.2,12.6,6.2,21.2
	c0,8.7-2.2,16.3-6.5,22.8c-4.6,6.7-11,12-18.5,15.2C483,639.9,473.5,641.7,462.6,641.7z"/>
<path class="st0" d="M591.4,641.7c-17.4,0-31.3-4.9-41.6-14.8c-10.3-9.9-15.4-24.1-15.4-42.6v-33.9c0-18.5,5.1-32.7,15.4-42.6
	c10.3-9.9,24.2-14.8,41.6-14.8c17.4,0,30.9,4.8,40.3,14.3c9.4,9.5,14.1,22.6,14.1,39.2v1.2H622v-1.8c0-9.3-2.5-16.8-7.5-22.7
	s-12.7-8.8-23.2-8.8c-10.2,0-18.3,3.2-24.1,9.5s-8.8,15-8.8,26v34.7c0,10.9,2.9,19.6,8.8,26c5.9,6.4,13.9,9.6,24.1,9.6
	c10.5,0,18.2-3,23.2-8.9c5-5.9,7.5-13.5,7.5-22.6v-3.5h23.7v2.9c0,16.6-4.7,29.7-14.1,39.2S608.8,641.7,591.4,641.7z"/>
<path class="st0" d="M723.8,641.7c-17.7,0-31.8-4.9-42.3-14.8c-10.5-9.9-15.7-24.1-15.7-42.6v-33.9c0-18.5,5.2-32.7,15.7-42.6
	c10.5-9.9,24.6-14.8,42.3-14.8s31.8,4.9,42.3,14.8c10.5,9.9,15.8,24.1,15.8,42.6v33.9c0,18.5-5.2,32.7-15.7,42.6
	C755.6,636.8,741.5,641.7,723.8,641.7z M723.8,620.2c10.8,0,19.1-3.2,25-9.5c5.9-6.3,8.9-14.9,8.9-25.7v-35.6
	c0-10.8-3-19.3-8.9-25.6c-5.9-6.3-14.3-9.5-25-9.5c-10.6,0-18.9,3.2-24.9,9.5s-9,14.9-9,25.6v35.6c0,10.8,3,19.3,9,25.7
	C704.9,617,713.2,620.2,723.8,620.2L723.8,620.2z"/>
<path class="st0" d="M807,638.9V495.8h24.1V617h67.4v21.9H807z"/>
<path class="st0" d="M917.9,638.9V495.8h24.1v60.5h57.2v-60.5h24.1v143.1h-24.1V578h-57.2v60.9H917.9z"/>
<path class="st0" d="M1041.8,638.9l39.6-143.1h41.9l39.6,143.1H1138l-8.6-32.9h-54.2l-8.6,32.9H1041.8z M1081.2,583.9h42.3l-19.4-73
	h-3.5L1081.2,583.9z"/>
<path class="st0" d="M1230.2,641.7c-10.8,0-20.3-1.9-28.7-5.8c-8.1-3.6-14.9-9.5-19.7-16.9c-4.8-7.3-7.1-16.3-7.2-27v-5.3h23.7v5.3
	c0,9.5,2.9,16.7,8.7,21.5c5.8,4.8,13.5,7.2,23.2,7.2c9.8,0,17.2-2,22.2-6.1c4.8-3.7,7.6-9.5,7.5-15.5c0-4.4-1.2-7.9-3.6-10.5
	c-2.8-2.9-6.3-5.2-10.2-6.5c-5.2-1.9-10.5-3.4-15.8-4.6l-6.5-1.6c-8.4-1.8-16.5-4.6-24.3-8.2c-6.3-2.9-11.8-7.3-15.8-12.9
	c-3.7-5.3-5.6-12.3-5.6-20.8c0-8.5,2.1-15.7,6.2-21.9c4.3-6.3,10.4-11.2,17.5-14.1c7.5-3.3,16.2-4.9,26.2-4.9
	c9.3-0.2,18.4,1.6,27,5.1c7.6,3.1,14.1,8.5,18.6,15.3c4.5,6.8,6.7,15.3,6.7,25.3v7h-23.7v-7c0-5.9-1.2-10.6-3.5-14.2
	c-2.4-3.7-5.8-6.5-9.9-8c-4.9-1.8-10-2.7-15.2-2.6c-8.5,0-14.9,1.7-19.3,5.1c-4.4,3.4-6.6,8.1-6.6,14.1c-0.1,3.5,0.9,7,3,9.9
	c2.3,2.9,5.4,5.2,8.9,6.6c4.7,2,9.7,3.5,14.7,4.5l6.5,1.6c8.7,1.8,17.1,4.5,25.2,8c6.8,2.9,12.7,7.4,17.2,13.2
	c4.2,5.5,6.2,12.6,6.2,21.2c0,8.7-2.2,16.3-6.5,22.8c-4.6,6.7-11,12-18.5,15.2C1250.6,639.9,1241.1,641.7,1230.2,641.7z"/>
<path class="st1" d="M656.6,453v-90.6h15.7V453H656.6z"/>
<path class="st1" d="M693.4,453v-90.6h29.9l21.1,80h2.2v-80H762V453h-29.9l-21-80.1h-2.2V453H693.4z"/>
<path class="st1" d="M814.4,454.9c-6.3,0.1-12.5-1.1-18.3-3.7c-5.1-2.3-9.4-6-12.5-10.7c-3-4.7-4.5-10.4-4.5-17.1V420h15.5v3.4
	c0,6,1.8,10.4,5.4,13.3c3.6,2.9,8.4,4.4,14.4,4.4c6.1,0,10.7-1.3,13.8-3.8c3-2.3,4.7-5.9,4.6-9.6c0.1-2.4-0.7-4.7-2.2-6.5
	c-1.8-1.9-4-3.3-6.4-4.1c-3.3-1.2-6.6-2.1-10-2.8l-3.9-0.9c-5.3-1.2-10.5-2.9-15.5-5.2c-4-1.8-7.5-4.6-10.1-8.2
	c-2.4-3.4-3.6-7.8-3.6-13.3c-0.1-5,1.3-9.9,4-14c2.8-4,6.6-7.1,11.1-8.9c5.3-2.2,11-3.2,16.7-3.1c5.9-0.1,11.7,1,17.1,3.3
	c4.8,2,8.9,5.4,11.8,9.7c2.9,4.3,4.3,9.6,4.3,16.1v4.3h-15.5v-4.3c0.1-3.1-0.6-6.1-2.1-8.8c-1.5-2.3-3.6-4-6.1-5
	c-3-1.1-6.2-1.7-9.4-1.6c-5.3,0-9.4,1.1-12.1,3.2c-2.7,2.1-4.2,5.3-4.1,8.7c-0.1,2.2,0.6,4.4,1.9,6.2c1.4,1.8,3.3,3.3,5.5,4.1
	c3,1.2,6,2.2,9.2,2.8l3.9,0.9c5.6,1.1,11.1,2.8,16.3,5.1c4.3,1.8,8.1,4.7,10.9,8.4c2.6,3.5,4,8,4,13.5c0.1,5.1-1.4,10.1-4.2,14.4
	c-3,4.3-7,7.6-11.8,9.7C826.7,453.8,820.6,455,814.4,454.9z"/>
<path class="st1" d="M883.2,453v-76.3h-26.9v-14.2h69.6v14.2H899V453L883.2,453z"/>
<path class="st1" d="M938.1,453v-90.6h15.7V453H938.1z"/>
<path class="st1" d="M992.9,453v-76.3h-27v-14.2h69.6v14.2h-26.9V453L992.9,453z"/>
<path class="st1" d="M1082.1,454.9c-7.2,0-13.5-1.3-18.7-3.9c-5.1-2.5-9.3-6.5-12-11.5c-2.9-5.5-4.4-11.6-4.2-17.8v-59.2h15.6V422
	c0,6,1.7,10.6,5,13.9c3.3,3.3,8.1,5,14.3,5c6.3,0,11.1-1.7,14.4-5c3.3-3.3,5-8,5-13.9v-59.5h15.7v59.1c0.2,6.2-1.3,12.4-4.2,17.8
	c-2.7,5-6.9,9-12,11.5C1095.7,453.5,1089.4,454.9,1082.1,454.9z"/>
<path class="st1" d="M1155.7,453v-76.3h-26.9v-14.2h69.6v14.2h-26.9V453L1155.7,453z"/>
<path class="st1" d="M1241.5,454.9c-11.2,0-20.2-3.1-26.8-9.4s-10-15.3-10-27V397c0-11.7,3.3-20.7,10-27s15.6-9.4,26.8-9.4
	c11.3,0,20.3,3.1,26.9,9.4s9.9,15.3,10,27v21.5c0,11.7-3.3,20.7-10,27C1261.8,451.7,1252.8,454.9,1241.5,454.9z M1241.5,440.9
	c6.7,0,12-2,15.7-5.9c3.7-3.9,5.6-9.3,5.6-16v-22.5c0-6.7-1.9-12.1-5.6-16c-3.7-3.9-8.9-5.9-15.7-5.9c-6.7,0-11.9,2-15.6,5.9
	s-5.6,9.3-5.6,16V419c0,6.7,1.9,12.1,5.6,16S1234.9,440.9,1241.5,440.9z"/>
<path class="st1" d="M218.4,0C97.8,0,0,97.8,0,218.4c0,0,0,0,0,0h34.6c0-101.5,82.3-183.8,183.8-183.8c0,0,0,0,0,0
	c101.3,0,183.8,82.4,183.8,183.8c0,101.5-82.3,183.8-183.8,183.8c0,0,0,0,0,0c-9.6,0-17.3,7.8-17.3,17.3s7.8,17.3,17.3,17.3
	c120.6,0,218.4-97.8,218.4-218.4c0,0,0,0,0,0C436.9,98,338.9,0,218.4,0z"/>
<path class="st1" d="M218.4,302.8c46.6,0,84.4-37.8,84.4-84.4s-37.8-84.4-84.4-84.4l0,0c-46.4,0.1-84.1,37.6-84.3,84
	c-10.9,4.6-21.3,10-31.3,16.3c-0.7-5.3-1.1-10.6-1.1-15.9H67c0,13.2,1.7,26.3,5.1,39c-9.2,8.3-17.6,17.4-25.3,27.1
	c-8.1-21.1-12.2-43.5-12.2-66.1H0c0,35,8.4,69.5,24.5,100.6C8.4,350.1,0,384.5,0,419.5h34.6c0-101.3,82.4-183.8,183.8-183.8
	c9.6,0,17.3-7.8,17.3-17.3c0-9.6-7.8-17.3-17.3-17.3c-16.2,0-32.4,1.8-48.3,5.4c5.5-22.2,25.4-37.8,48.3-37.8l0,0
	c27.5,0,49.7,22.3,49.7,49.7c0,27.5-22.3,49.7-49.7,49.7C134.8,268.1,67,335.9,67,419.5h34.6C101.7,355,153.9,302.8,218.4,302.8z"/>
<path class="st1" d="M369.8,218.4C369.8,135,301.9,67,218.4,67l0,0C135,67,67,135,67,218.4h34.6c0.1-64.5,52.3-116.7,116.8-116.8
	l0,0c64.5,0,116.8,52.3,116.8,116.8s-52.3,116.8-116.8,116.8c-46.6,0.1-84.3,37.8-84.4,84.3h34.6c0.1-27.4,22.3-49.6,49.7-49.7
	C301.9,369.9,369.8,301.9,369.8,218.4z"/>
<path class="st0" d="M218.4,503.9c-46.6,0-84.3-37.8-84.3-84.3h34.6c0,27.5,22.3,49.7,49.7,49.7L218.4,503.9z M218.4,536.3
	C154,536.2,101.7,484,101.7,419.5H67.1c0,83.5,67.9,151.4,151.4,151.4V536.3z M218.4,603.3c-101.4,0-183.8-82.5-183.8-183.8H0
	c0,120.4,98,218.4,218.4,218.4V603.3z"/>
<path class="st0" d="M218.4,503.9c-46.6,0-84.3-37.8-84.3-84.3h34.6c0,27.5,22.3,49.7,49.7,49.7L218.4,503.9z M218.4,536.3
	C154,536.2,101.7,484,101.7,419.5H67.1c0,83.5,67.9,151.4,151.4,151.4V536.3z M218.4,603.3c-101.4,0-183.8-82.5-183.8-183.8H0
	c0,120.4,98,218.4,218.4,218.4V603.3z"/>
<path class="st0" d="M218.4,503.9c-46.6,0-84.3-37.8-84.3-84.3h34.6c0,27.5,22.3,49.7,49.7,49.7L218.4,503.9z M218.4,536.3
	C154,536.2,101.7,484,101.7,419.5H67.1c0,83.5,67.9,151.4,151.4,151.4V536.3z M218.4,603.3c-101.4,0-183.8-82.5-183.8-183.8H0
	c0,120.4,98,218.4,218.4,218.4V603.3z"/>
</svg>
